<svg width="127" height="16" viewBox="0 0 127 16" fill="none" xmlns="http://www.w3.org/2000/svg">
<path d="M2.56563 5.77356H2.62813L7.22188 0.726685H9.31563L4.35469 6.10168L9.77657 12.0001H7.4875L2.62813 6.71106H2.56563V12.0001H0.815628V0.726685H2.56563V5.77356ZM18.0859 12.0001H14.3047V3.78137H18.0391C19.6406 3.78137 20.6094 4.58606 20.6094 5.89856C20.6094 6.75012 20 7.53137 19.2109 7.67981V7.74231C20.2734 7.88293 20.9766 8.61731 20.9766 9.63293C20.9766 11.0782 19.8672 12.0001 18.0859 12.0001ZM15.9766 5.00793V7.19543H17.5156C18.4688 7.19543 18.9453 6.82825 18.9453 6.09387C18.9453 5.39856 18.5 5.00793 17.6875 5.00793H15.9766ZM15.9766 8.37512V10.7736H17.8203C18.7656 10.7736 19.2891 10.3517 19.2891 9.56262C19.2891 8.76575 18.7344 8.37512 17.625 8.37512H15.9766ZM29.8969 12.0001V3.78137H31.5688V12.0001H29.8969ZM22.5766 12.0001V3.78137H24.2641V6.32043H25.8266C27.725 6.32043 28.9516 7.422 28.9516 9.15637C28.9516 10.8986 27.725 12.0001 25.8266 12.0001H22.5766ZM25.6781 7.64075H24.2641V10.672H25.6781C26.6469 10.672 27.2719 10.0626 27.2719 9.15637C27.2719 8.24231 26.6391 7.64075 25.6781 7.64075ZM37.1531 12.1564C34.5828 12.1564 33.1922 10.4767 33.1922 7.22668C33.1922 2.66418 34.5203 0.812622 37.6453 0.703247L38.3797 0.67981C39.2625 0.640747 40.1531 0.476685 40.5281 0.27356V1.672C40.3172 1.86731 39.4813 2.07043 38.4734 2.1095L37.7547 2.13293C35.5594 2.21106 34.8641 3.19543 34.5594 5.51575H34.6219C35.1453 4.547 36.1375 4.01575 37.4266 4.01575C39.6453 4.01575 41.0672 5.56262 41.0672 7.9845C41.0672 10.5704 39.575 12.1564 37.1531 12.1564ZM37.1375 10.7423C38.5281 10.7423 39.3406 9.75793 39.3406 8.00793C39.3406 6.34387 38.5281 5.39075 37.1375 5.39075C35.7391 5.39075 34.9188 6.34387 34.9188 8.00793C34.9188 9.75793 35.7313 10.7423 37.1375 10.7423ZM46.1516 12.1564C43.8 12.1564 42.2531 10.5392 42.2531 7.89075C42.2531 5.25012 43.8156 3.63293 46.1516 3.63293C48.4953 3.63293 50.05 5.25012 50.05 7.89075C50.05 10.5392 48.5031 12.1564 46.1516 12.1564ZM46.1516 10.7657C47.4797 10.7657 48.3313 9.71887 48.3313 7.89075C48.3313 6.07043 47.4719 5.02356 46.1516 5.02356C44.8391 5.02356 43.9719 6.07043 43.9719 7.89075C43.9719 9.71887 44.8313 10.7657 46.1516 10.7657ZM55.8766 3.64856C57.9703 3.64856 59.3375 5.28918 59.3375 7.89075C59.3375 10.4923 57.9781 12.1407 55.9078 12.1407C54.7281 12.1407 53.7906 11.5626 53.3219 10.6486H53.2828V14.7189H51.5953V3.78137H53.2281V5.19543H53.2594C53.7437 4.25012 54.6891 3.64856 55.8766 3.64856ZM55.4312 10.7111C56.7672 10.7111 57.6031 9.61731 57.6031 7.89075C57.6031 6.172 56.7672 5.07043 55.4312 5.07043C54.1422 5.07043 53.275 6.19543 53.275 7.89075C53.275 9.60168 54.1422 10.7111 55.4312 10.7111ZM61.4844 15.0626C61.3516 15.0626 60.9219 15.047 60.7969 15.0236V13.6564C60.9219 13.6876 61.2031 13.6876 61.3438 13.6876C62.125 13.6876 62.5469 13.3595 62.8047 12.5157C62.8047 12.5001 62.9531 12.0157 62.9531 12.0079L59.9844 3.78137H61.8125L63.8906 10.4689H63.9219L66.0078 3.78137H67.7891L64.7031 12.4298C64 14.422 63.1953 15.0626 61.4844 15.0626ZM77.7547 12.0001V8.422H74.0516V12.0001H72.3641V3.78137H74.0516V7.09387H77.7547V3.78137H79.4422V12.0001H77.7547ZM84.9016 12.1564C82.55 12.1564 81.0031 10.5392 81.0031 7.89075C81.0031 5.25012 82.5656 3.63293 84.9016 3.63293C87.2453 3.63293 88.8 5.25012 88.8 7.89075C88.8 10.5392 87.2531 12.1564 84.9016 12.1564ZM84.9016 10.7657C86.2297 10.7657 87.0813 9.71887 87.0813 7.89075C87.0813 6.07043 86.2219 5.02356 84.9016 5.02356C83.5891 5.02356 82.7219 6.07043 82.7219 7.89075C82.7219 9.71887 83.5813 10.7657 84.9016 10.7657ZM91.9703 12.0001H90.3453V3.78137H92.4625L95.0953 9.80481H95.1578L97.8062 3.78137H99.8766V12.0001H98.2359V6.297H98.1812L95.7203 11.6798H94.4859L92.025 6.297H91.9703V12.0001ZM107.234 9.58606H108.844C108.602 11.0861 107.18 12.1564 105.297 12.1564C102.883 12.1564 101.422 10.5236 101.422 7.92981C101.422 5.35168 102.906 3.63293 105.234 3.63293C107.508 3.63293 108.93 5.24231 108.93 7.7345V8.31262H103.125V8.41418C103.125 9.84387 103.984 10.7892 105.336 10.7892C106.297 10.7892 107.016 10.3048 107.234 9.58606ZM105.227 4.99231C104.047 4.99231 103.219 5.89075 103.141 7.13293H107.242C107.203 5.87512 106.406 4.99231 105.227 4.99231ZM114.764 3.64856C116.858 3.64856 118.225 5.28918 118.225 7.89075C118.225 10.4923 116.866 12.1407 114.795 12.1407C113.616 12.1407 112.678 11.5626 112.209 10.6486H112.17V14.7189H110.483V3.78137H112.116V5.19543H112.147C112.631 4.25012 113.577 3.64856 114.764 3.64856ZM114.319 10.7111C115.655 10.7111 116.491 9.61731 116.491 7.89075C116.491 6.172 115.655 5.07043 114.319 5.07043C113.03 5.07043 112.163 6.19543 112.163 7.89075C112.163 9.60168 113.03 10.7111 114.319 10.7111ZM122.177 12.1407C120.575 12.1407 119.442 11.1407 119.442 9.66418C119.442 8.22668 120.544 7.34387 122.497 7.2345L124.747 7.10168V6.46887C124.747 5.55481 124.13 5.00793 123.098 5.00793C122.122 5.00793 121.513 5.47668 121.364 6.21106H119.77C119.864 4.72668 121.13 3.63293 123.161 3.63293C125.153 3.63293 126.427 4.68762 126.427 6.33606V12.0001H124.809V10.6486H124.77C124.294 11.5626 123.255 12.1407 122.177 12.1407ZM122.645 10.8048C123.825 10.8048 124.747 9.99231 124.747 8.922V8.27356L122.723 8.39856C121.716 8.46887 121.145 8.91418 121.145 9.61731C121.145 10.3361 121.747 10.8048 122.645 10.8048Z" fill="white"/>
</svg>
