<!-- icon666.com - MILLIONS vector ICONS FREE --><svg id="Capa_1" enable-background="new 0 0 509.642 509.642" viewBox="0 0 509.642 509.642" xmlns="http://www.w3.org/2000/svg"><g><g><path d="m486.174 109.273c-1.737 0-3.145 1.408-3.145 3.145s1.408 3.145 3.145 3.145 3.145-1.408 3.145-3.145-1.408-3.145-3.145-3.145z"></path><path d="m486.174 129.547c-1.737 0-3.145 1.409-3.145 3.146s1.408 3.145 3.145 3.145 3.145-1.408 3.145-3.145-1.408-3.146-3.145-3.146z"></path><path d="m496.693 139.303c-1.737 0-3.145 1.408-3.145 3.145s1.408 3.145 3.145 3.145 3.145-1.408 3.145-3.145-1.408-3.145-3.145-3.145z"></path><path d="m486.174 149.822c-1.737 0-3.145 1.408-3.145 3.145s1.408 3.145 3.145 3.145 3.145-1.408 3.145-3.145-1.408-3.145-3.145-3.145z"></path><path d="m496.693 159.578c-1.737 0-3.145 1.408-3.145 3.145s1.408 3.145 3.145 3.145 3.145-1.408 3.145-3.145-1.408-3.145-3.145-3.145z"></path><path d="m486.174 170.096c-1.737 0-3.145 1.408-3.145 3.145s1.408 3.145 3.145 3.145 3.145-1.408 3.145-3.145-1.408-3.145-3.145-3.145z"></path><circle cx="496.693" cy="182.997" r="3.145"></circle><path d="m486.174 190.371c-1.737 0-3.145 1.408-3.145 3.145s1.408 3.145 3.145 3.145 3.145-1.408 3.145-3.145-1.408-3.145-3.145-3.145z"></path><circle cx="496.693" cy="203.271" r="3.145"></circle><path d="m486.174 210.645c-1.737 0-3.145 1.408-3.145 3.145s1.408 3.145 3.145 3.145 3.145-1.408 3.145-3.145-1.408-3.145-3.145-3.145z"></path><path d="m496.693 220.401c-1.737 0-3.145 1.408-3.145 3.145s1.408 3.145 3.145 3.145 3.145-1.408 3.145-3.145-1.408-3.145-3.145-3.145z"></path><path d="m486.174 230.919c-1.737 0-3.145 1.408-3.145 3.145s1.408 3.145 3.145 3.145 3.145-1.408 3.145-3.145c0-1.736-1.408-3.145-3.145-3.145z"></path><path d="m496.693 240.675c-1.737 0-3.145 1.408-3.145 3.145s1.408 3.145 3.145 3.145 3.145-1.408 3.145-3.145-1.408-3.145-3.145-3.145z"></path><path d="m486.174 251.194c-1.737 0-3.145 1.408-3.145 3.145s1.408 3.144 3.145 3.144 3.145-1.408 3.145-3.144-1.408-3.145-3.145-3.145z"></path><path d="m486.174 271.468c-1.737 0-3.145 1.408-3.145 3.145s1.408 3.145 3.145 3.145 3.145-1.408 3.145-3.145-1.408-3.145-3.145-3.145z"></path><path d="m465.9 68.724c-1.737 0-3.145 1.408-3.145 3.145s1.408 3.145 3.145 3.145 3.145-1.408 3.145-3.145-1.408-3.145-3.145-3.145z"></path><path d="m476.419 78.48c-1.737 0-3.145 1.408-3.145 3.145s1.408 3.145 3.145 3.145 3.145-1.408 3.145-3.145-1.408-3.145-3.145-3.145z"></path><path d="m465.9 88.998c-1.737 0-3.145 1.409-3.145 3.146s1.408 3.144 3.145 3.144 3.145-1.408 3.145-3.144c0-1.737-1.408-3.146-3.145-3.146z"></path><path d="m476.419 98.754c-1.737 0-3.145 1.408-3.145 3.145s1.408 3.145 3.145 3.145 3.145-1.408 3.145-3.145-1.408-3.145-3.145-3.145z"></path><path d="m465.9 109.273c-1.737 0-3.145 1.408-3.145 3.145s1.408 3.145 3.145 3.145 3.145-1.408 3.145-3.145-1.408-3.145-3.145-3.145z"></path><path d="m476.419 119.029c-1.737 0-3.145 1.408-3.145 3.145s1.408 3.145 3.145 3.145 3.145-1.408 3.145-3.145-1.408-3.145-3.145-3.145z"></path><path d="m465.9 129.547c-1.737 0-3.145 1.409-3.145 3.146s1.408 3.145 3.145 3.145 3.145-1.408 3.145-3.145-1.408-3.146-3.145-3.146z"></path><path d="m476.419 139.303c-1.737 0-3.145 1.408-3.145 3.145s1.408 3.145 3.145 3.145 3.145-1.408 3.145-3.145-1.408-3.145-3.145-3.145z"></path><path d="m465.9 149.822c-1.737 0-3.145 1.408-3.145 3.145s1.408 3.145 3.145 3.145 3.145-1.408 3.145-3.145-1.408-3.145-3.145-3.145z"></path><path d="m476.419 159.578c-1.737 0-3.145 1.408-3.145 3.145s1.408 3.145 3.145 3.145 3.145-1.408 3.145-3.145-1.408-3.145-3.145-3.145z"></path><path d="m465.9 170.096c-1.737 0-3.145 1.408-3.145 3.145s1.408 3.145 3.145 3.145 3.145-1.408 3.145-3.145-1.408-3.145-3.145-3.145z"></path><path d="m476.419 179.852c-1.737 0-3.145 1.408-3.145 3.145s1.408 3.145 3.145 3.145 3.145-1.407 3.145-3.145c0-1.737-1.408-3.145-3.145-3.145z"></path><path d="m465.9 190.371c-1.737 0-3.145 1.408-3.145 3.145s1.408 3.145 3.145 3.145 3.145-1.408 3.145-3.145-1.408-3.145-3.145-3.145z"></path><path d="m476.419 200.127c-1.737 0-3.145 1.408-3.145 3.145s1.408 3.145 3.145 3.145 3.145-1.407 3.145-3.145-1.408-3.145-3.145-3.145z"></path><path d="m465.9 210.645c-1.737 0-3.145 1.408-3.145 3.145s1.408 3.145 3.145 3.145 3.145-1.408 3.145-3.145-1.408-3.145-3.145-3.145z"></path><path d="m476.419 220.401c-1.737 0-3.145 1.408-3.145 3.145s1.408 3.145 3.145 3.145 3.145-1.408 3.145-3.145-1.408-3.145-3.145-3.145z"></path><path d="m465.9 230.919c-1.737 0-3.145 1.408-3.145 3.145s1.408 3.145 3.145 3.145 3.145-1.408 3.145-3.145c0-1.736-1.408-3.145-3.145-3.145z"></path><path d="m476.419 240.675c-1.737 0-3.145 1.408-3.145 3.145s1.408 3.145 3.145 3.145 3.145-1.408 3.145-3.145-1.408-3.145-3.145-3.145z"></path><path d="m465.9 251.194c-1.737 0-3.145 1.408-3.145 3.145s1.408 3.144 3.145 3.144 3.145-1.408 3.145-3.144-1.408-3.145-3.145-3.145z"></path><path d="m476.419 260.95c-1.737 0-3.145 1.408-3.145 3.145s1.408 3.145 3.145 3.145 3.145-1.408 3.145-3.145-1.408-3.145-3.145-3.145z"></path><path d="m465.9 271.468c-1.737 0-3.145 1.408-3.145 3.145s1.408 3.145 3.145 3.145 3.145-1.408 3.145-3.145-1.408-3.145-3.145-3.145z"></path><path d="m476.419 281.224c-1.737 0-3.145 1.408-3.145 3.145s1.408 3.145 3.145 3.145 3.145-1.408 3.145-3.145-1.408-3.145-3.145-3.145z"></path><path d="m465.9 291.743c-1.737 0-3.145 1.408-3.145 3.145s1.408 3.145 3.145 3.145 3.145-1.408 3.145-3.145-1.408-3.145-3.145-3.145z"></path><path d="m445.625 48.449c-1.737 0-3.145 1.408-3.145 3.145s1.408 3.145 3.145 3.145 3.145-1.408 3.145-3.145-1.408-3.145-3.145-3.145z"></path><circle cx="456.144" cy="61.35" r="3.145"></circle><circle cx="456.144" cy="81.625" r="3.145"></circle><path d="m456.144 98.754c-1.737 0-3.145 1.408-3.145 3.145s1.408 3.145 3.145 3.145 3.145-1.408 3.145-3.145-1.408-3.145-3.145-3.145z"></path><path d="m456.144 119.029c-1.737 0-3.145 1.408-3.145 3.145s1.408 3.145 3.145 3.145 3.145-1.408 3.145-3.145-1.408-3.145-3.145-3.145z"></path><path d="m456.144 139.303c-1.737 0-3.145 1.408-3.145 3.145s1.408 3.145 3.145 3.145 3.145-1.408 3.145-3.145-1.408-3.145-3.145-3.145z"></path><path d="m456.144 159.578c-1.737 0-3.145 1.408-3.145 3.145s1.408 3.145 3.145 3.145 3.145-1.408 3.145-3.145-1.408-3.145-3.145-3.145z"></path><circle cx="456.144" cy="182.997" r="3.145"></circle><circle cx="456.144" cy="203.271" r="3.145"></circle><path d="m456.144 220.401c-1.737 0-3.145 1.408-3.145 3.145s1.408 3.145 3.145 3.145 3.145-1.408 3.145-3.145-1.408-3.145-3.145-3.145z"></path><path d="m445.625 230.919c-1.737 0-3.145 1.408-3.145 3.145s1.408 3.145 3.145 3.145 3.145-1.408 3.145-3.145c0-1.736-1.408-3.145-3.145-3.145z"></path><path d="m456.144 240.675c-1.737 0-3.145 1.408-3.145 3.145s1.408 3.145 3.145 3.145 3.145-1.408 3.145-3.145-1.408-3.145-3.145-3.145z"></path><path d="m445.625 251.194c-1.737 0-3.145 1.408-3.145 3.145s1.408 3.144 3.145 3.144 3.145-1.408 3.145-3.144-1.408-3.145-3.145-3.145z"></path><path d="m456.144 260.95c-1.737 0-3.145 1.408-3.145 3.145s1.408 3.145 3.145 3.145 3.145-1.408 3.145-3.145-1.408-3.145-3.145-3.145z"></path><path d="m445.625 271.468c-1.737 0-3.145 1.408-3.145 3.145s1.408 3.145 3.145 3.145 3.145-1.408 3.145-3.145-1.408-3.145-3.145-3.145z"></path><path d="m456.144 281.224c-1.737 0-3.145 1.408-3.145 3.145s1.408 3.145 3.145 3.145 3.145-1.408 3.145-3.145-1.408-3.145-3.145-3.145z"></path><path d="m445.625 291.743c-1.737 0-3.145 1.408-3.145 3.145s1.408 3.145 3.145 3.145 3.145-1.408 3.145-3.145-1.408-3.145-3.145-3.145z"></path><path d="m456.144 301.499c-1.737 0-3.145 1.408-3.145 3.145s1.408 3.145 3.145 3.145 3.145-1.408 3.145-3.145-1.408-3.145-3.145-3.145z"></path><path d="m445.625 312.017c-1.737 0-3.145 1.408-3.145 3.145s1.408 3.145 3.145 3.145 3.145-1.408 3.145-3.145-1.408-3.145-3.145-3.145z"></path><path d="m435.87 37.931c-1.066 0-2.004.532-2.573 1.343.984 1.617 1.937 3.255 2.85 4.918 1.605-.143 2.868-1.475 2.868-3.117 0-1.736-1.408-3.144-3.145-3.144z"></path><path d="m435.87 260.95c-1.737 0-3.145 1.408-3.145 3.145s1.408 3.145 3.145 3.145 3.145-1.408 3.145-3.145-1.408-3.145-3.145-3.145z"></path><path d="m425.351 271.468c-1.737 0-3.145 1.408-3.145 3.145s1.408 3.145 3.145 3.145 3.145-1.408 3.145-3.145-1.408-3.145-3.145-3.145z"></path><path d="m435.87 281.224c-1.737 0-3.145 1.408-3.145 3.145s1.408 3.145 3.145 3.145 3.145-1.408 3.145-3.145-1.408-3.145-3.145-3.145z"></path><path d="m425.351 291.743c-1.737 0-3.145 1.408-3.145 3.145s1.408 3.145 3.145 3.145 3.145-1.408 3.145-3.145-1.408-3.145-3.145-3.145z"></path><path d="m435.87 301.499c-1.737 0-3.145 1.408-3.145 3.145s1.408 3.145 3.145 3.145 3.145-1.408 3.145-3.145-1.408-3.145-3.145-3.145z"></path><path d="m425.351 312.017c-1.737 0-3.145 1.408-3.145 3.145s1.408 3.145 3.145 3.145 3.145-1.408 3.145-3.145-1.408-3.145-3.145-3.145z"></path><path d="m435.87 321.773c-1.737 0-3.145 1.408-3.145 3.145s1.408 3.145 3.145 3.145 3.145-1.408 3.145-3.145-1.408-3.145-3.145-3.145z"></path><path d="m415.595 281.224c-1.737 0-3.145 1.408-3.145 3.145s1.408 3.145 3.145 3.145 3.145-1.408 3.145-3.145-1.408-3.145-3.145-3.145z"></path><path d="m405.077 291.743c-1.737 0-3.145 1.408-3.145 3.145s1.408 3.145 3.145 3.145 3.145-1.408 3.145-3.145c-.001-1.737-1.409-3.145-3.145-3.145z"></path><path d="m415.595 301.499c-1.737 0-3.145 1.408-3.145 3.145s1.408 3.145 3.145 3.145 3.145-1.408 3.145-3.145-1.408-3.145-3.145-3.145z"></path><path d="m405.077 312.017c-1.737 0-3.145 1.408-3.145 3.145s1.408 3.145 3.145 3.145 3.145-1.408 3.145-3.145c-.001-1.737-1.409-3.145-3.145-3.145z"></path><path d="m415.595 321.773c-1.737 0-3.145 1.408-3.145 3.145s1.408 3.145 3.145 3.145 3.145-1.408 3.145-3.145-1.408-3.145-3.145-3.145z"></path><path d="m405.077 332.292c-1.737 0-3.145 1.408-3.145 3.146 0 1.737 1.408 3.145 3.145 3.145s3.145-1.408 3.145-3.145c-.001-1.738-1.409-3.146-3.145-3.146z"></path><path d="m395.321 301.499c-1.737 0-3.145 1.408-3.145 3.145s1.408 3.145 3.145 3.145 3.145-1.408 3.145-3.145-1.408-3.145-3.145-3.145z"></path><path d="m384.802 312.017c-1.737 0-3.145 1.408-3.145 3.145s1.408 3.145 3.145 3.145 3.145-1.408 3.145-3.145-1.408-3.145-3.145-3.145z"></path><path d="m395.321 321.773c-1.737 0-3.145 1.408-3.145 3.145s1.408 3.145 3.145 3.145 3.145-1.408 3.145-3.145-1.408-3.145-3.145-3.145z"></path><path d="m384.802 332.292c-1.737 0-3.145 1.408-3.145 3.146 0 1.737 1.408 3.145 3.145 3.145s3.145-1.408 3.145-3.145c0-1.738-1.408-3.146-3.145-3.146z"></path><path d="m375.047 301.499c-1.737 0-3.145 1.408-3.145 3.145s1.408 3.145 3.145 3.145 3.145-1.408 3.145-3.145c-.001-1.737-1.409-3.145-3.145-3.145z"></path><path d="m364.528 312.017c-1.737 0-3.145 1.408-3.145 3.145s1.408 3.145 3.145 3.145 3.145-1.408 3.145-3.145-1.409-3.145-3.145-3.145z"></path><path d="m375.047 321.773c-1.737 0-3.145 1.408-3.145 3.145s1.408 3.145 3.145 3.145 3.145-1.408 3.145-3.145c-.001-1.737-1.409-3.145-3.145-3.145z"></path><path d="m364.528 332.292c-1.737 0-3.145 1.408-3.145 3.146 0 1.737 1.408 3.145 3.145 3.145s3.145-1.408 3.145-3.145c0-1.738-1.409-3.146-3.145-3.146z"></path><path d="m344.253 312.017c-1.737 0-3.145 1.408-3.145 3.145s1.408 3.145 3.145 3.145 3.145-1.408 3.145-3.145-1.408-3.145-3.145-3.145z"></path><path d="m354.772 321.773c-1.737 0-3.145 1.408-3.145 3.145s1.408 3.145 3.145 3.145 3.145-1.408 3.145-3.145-1.408-3.145-3.145-3.145z"></path><path d="m344.253 332.292c-1.737 0-3.145 1.408-3.145 3.146 0 1.737 1.408 3.145 3.145 3.145s3.145-1.408 3.145-3.145c0-1.738-1.408-3.146-3.145-3.146z"></path><path d="m323.979 312.017c-1.737 0-3.145 1.408-3.145 3.145s1.408 3.145 3.145 3.145 3.145-1.408 3.145-3.145-1.408-3.145-3.145-3.145z"></path><path d="m334.498 321.773c-1.737 0-3.145 1.408-3.145 3.145s1.408 3.145 3.145 3.145 3.145-1.408 3.145-3.145c-.001-1.737-1.408-3.145-3.145-3.145z"></path><path d="m323.979 332.292c-1.737 0-3.145 1.408-3.145 3.146 0 1.737 1.408 3.145 3.145 3.145s3.145-1.408 3.145-3.145c0-1.738-1.408-3.146-3.145-3.146z"></path><circle cx="303.704" cy="315.162" r="3.145"></circle><path d="m314.223 321.773c-1.737 0-3.145 1.408-3.145 3.145s1.408 3.145 3.145 3.145 3.145-1.408 3.145-3.145-1.408-3.145-3.145-3.145z"></path><path d="m303.704 332.292c-1.737 0-3.145 1.408-3.145 3.146 0 1.737 1.408 3.145 3.145 3.145s3.145-1.408 3.145-3.145c0-1.738-1.408-3.146-3.145-3.146z"></path><path d="m283.43 312.017c-1.737 0-3.145 1.408-3.145 3.145s1.408 3.145 3.145 3.145 3.145-1.408 3.145-3.145-1.408-3.145-3.145-3.145z"></path><path d="m293.949 321.773c-1.737 0-3.145 1.408-3.145 3.145s1.408 3.145 3.145 3.145 3.145-1.408 3.145-3.145-1.409-3.145-3.145-3.145z"></path><path d="m283.43 332.292c-1.737 0-3.145 1.408-3.145 3.146 0 1.737 1.408 3.145 3.145 3.145s3.145-1.408 3.145-3.145c0-1.738-1.408-3.146-3.145-3.146z"></path><path d="m263.155 312.017c-1.737 0-3.145 1.408-3.145 3.145s1.408 3.145 3.145 3.145 3.145-1.408 3.145-3.145-1.408-3.145-3.145-3.145z"></path><path d="m273.674 321.773c-1.737 0-3.145 1.408-3.145 3.145s1.408 3.145 3.145 3.145 3.145-1.408 3.145-3.145-1.408-3.145-3.145-3.145z"></path><path d="m263.155 332.292c-1.737 0-3.145 1.408-3.145 3.146 0 1.737 1.408 3.145 3.145 3.145s3.145-1.408 3.145-3.145c0-1.738-1.408-3.146-3.145-3.146z"></path><path d="m242.881 312.017c-1.737 0-3.145 1.408-3.145 3.145s1.408 3.145 3.145 3.145 3.145-1.408 3.145-3.145-1.408-3.145-3.145-3.145z"></path><path d="m253.4 321.773c-1.737 0-3.145 1.408-3.145 3.145s1.408 3.145 3.145 3.145 3.145-1.408 3.145-3.145-1.408-3.145-3.145-3.145z"></path><path d="m242.881 332.292c-1.737 0-3.145 1.408-3.145 3.146 0 1.737 1.408 3.145 3.145 3.145s3.145-1.408 3.145-3.145c0-1.738-1.408-3.146-3.145-3.146z"></path><path d="m222.606 312.017c-1.737 0-3.145 1.408-3.145 3.145s1.408 3.145 3.145 3.145 3.145-1.408 3.145-3.145-1.408-3.145-3.145-3.145z"></path><path d="m233.126 321.773c-1.737 0-3.145 1.408-3.145 3.145s1.408 3.145 3.145 3.145 3.145-1.408 3.145-3.145c-.001-1.737-1.409-3.145-3.145-3.145z"></path><path d="m222.606 332.292c-1.737 0-3.145 1.408-3.145 3.146 0 1.737 1.408 3.145 3.145 3.145s3.145-1.408 3.145-3.145c0-1.738-1.408-3.146-3.145-3.146z"></path><path d="m202.332 312.017c-1.737 0-3.145 1.408-3.145 3.145s1.408 3.145 3.145 3.145 3.145-1.408 3.145-3.145-1.408-3.145-3.145-3.145z"></path><path d="m212.851 321.773c-1.737 0-3.145 1.408-3.145 3.145s1.408 3.145 3.145 3.145 3.145-1.408 3.145-3.145-1.408-3.145-3.145-3.145z"></path><path d="m202.332 332.292c-1.737 0-3.145 1.408-3.145 3.146 0 1.737 1.408 3.145 3.145 3.145s3.145-1.408 3.145-3.145c0-1.738-1.408-3.146-3.145-3.146z"></path><circle cx="182.058" cy="315.162" r="3.145"></circle><path d="m192.577 321.773c-1.737 0-3.145 1.408-3.145 3.145s1.408 3.145 3.145 3.145 3.145-1.408 3.145-3.145c-.001-1.737-1.409-3.145-3.145-3.145z"></path><path d="m182.058 332.292c-1.737 0-3.145 1.408-3.145 3.146 0 1.737 1.408 3.145 3.145 3.145s3.145-1.408 3.145-3.145c-.001-1.738-1.409-3.146-3.145-3.146z"></path><path d="m161.783 312.017c-1.737 0-3.145 1.408-3.145 3.145s1.408 3.145 3.145 3.145 3.145-1.408 3.145-3.145-1.408-3.145-3.145-3.145z"></path><path d="m172.302 321.773c-1.737 0-3.145 1.408-3.145 3.145s1.408 3.145 3.145 3.145 3.145-1.408 3.145-3.145-1.408-3.145-3.145-3.145z"></path><path d="m161.783 332.292c-1.737 0-3.145 1.408-3.145 3.146 0 1.737 1.408 3.145 3.145 3.145s3.145-1.408 3.145-3.145c0-1.738-1.408-3.146-3.145-3.146z"></path><path d="m141.508 312.017c-1.737 0-3.145 1.408-3.145 3.145s1.408 3.145 3.145 3.145 3.145-1.408 3.145-3.145c.001-1.737-1.407-3.145-3.145-3.145z"></path><path d="m152.028 321.773c-1.737 0-3.145 1.408-3.145 3.145s1.408 3.145 3.145 3.145 3.145-1.408 3.145-3.145-1.409-3.145-3.145-3.145z"></path><path d="m141.508 332.292c-1.737 0-3.145 1.408-3.145 3.146 0 1.737 1.408 3.145 3.145 3.145s3.145-1.408 3.145-3.145c.001-1.738-1.407-3.146-3.145-3.146z"></path><circle cx="121.234" cy="315.162" r="3.145"></circle><path d="m131.753 321.773c-1.737 0-3.145 1.408-3.145 3.145s1.408 3.145 3.145 3.145 3.145-1.408 3.145-3.145-1.408-3.145-3.145-3.145z"></path><path d="m121.234 332.292c-1.737 0-3.145 1.408-3.145 3.146 0 1.737 1.408 3.145 3.145 3.145s3.145-1.408 3.145-3.145c0-1.738-1.408-3.146-3.145-3.146z"></path><path d="m100.96 312.017c-1.737 0-3.145 1.408-3.145 3.145s1.408 3.145 3.145 3.145 3.145-1.408 3.145-3.145-1.408-3.145-3.145-3.145z"></path><path d="m111.479 321.773c-1.737 0-3.145 1.408-3.145 3.145s1.408 3.145 3.145 3.145 3.145-1.408 3.145-3.145-1.409-3.145-3.145-3.145z"></path><path d="m100.96 332.292c-1.737 0-3.145 1.408-3.145 3.146 0 1.737 1.408 3.145 3.145 3.145s3.145-1.408 3.145-3.145c0-1.738-1.408-3.146-3.145-3.146z"></path><path d="m80.685 312.017c-1.737 0-3.145 1.408-3.145 3.145s1.408 3.145 3.145 3.145 3.145-1.408 3.145-3.145-1.408-3.145-3.145-3.145z"></path><path d="m91.204 321.773c-1.737 0-3.145 1.408-3.145 3.145s1.408 3.145 3.145 3.145 3.145-1.408 3.145-3.145-1.408-3.145-3.145-3.145z"></path><path d="m60.411 312.017c-1.737 0-3.145 1.408-3.145 3.145s1.408 3.145 3.145 3.145 3.145-1.408 3.145-3.145-1.408-3.145-3.145-3.145z"></path><path d="m70.93 321.773c-1.737 0-3.145 1.408-3.145 3.145s1.408 3.145 3.145 3.145 3.145-1.408 3.145-3.145-1.408-3.145-3.145-3.145z"></path><path d="m377.692 14.007h-245.741c-72.758 0-131.951 59.193-131.951 131.951v77.999c0 72.757 59.193 131.95 131.951 131.95h61.995c.493 41.335-3.424 70.993-11.891 89.699h-40.038c-23.073 0-41.844 18.771-41.844 41.844v4.129c0 2.239 1.815 4.055 4.055 4.055h301.187c2.239 0 4.055-1.816 4.055-4.055v-4.129c0-23.073-18.771-41.844-41.844-41.844h-39.027c-10.914-23.917-13.738-57.259-14.264-89.699h63.357c72.757 0 131.95-59.193 131.95-131.95v-77.999c0-72.758-59.193-131.951-131.95-131.951zm-10.066 439.708c18.602 0 33.734 15.133 33.734 33.734v.074h-293.078v-.074c0-18.601 15.133-33.734 33.734-33.734zm133.906-229.758c0 12.928-1.995 25.399-5.687 37.124-1.322.372-2.297 1.573-2.297 3.014 0 .709.243 1.356.639 1.882-11.478 31.724-35.565 57.46-66.179 71.127.304-.484.487-1.053.487-1.667 0-1.737-1.408-3.146-3.145-3.146s-3.145 1.408-3.145 3.146c0 1.518 1.075 2.783 2.505 3.079-8.376 3.451-17.21 6.007-26.384 7.553.081-.28.139-.57.139-.876 0-1.737-1.408-3.145-3.145-3.145s-3.145 1.408-3.145 3.145c0 .626.188 1.206.503 1.695-4.915.596-9.915.909-14.987.909h-.883c.834-.565 1.383-1.521 1.383-2.604 0-1.737-1.408-3.145-3.145-3.145s-3.145 1.408-3.145 3.145c0 1.084.549 2.039 1.383 2.604h-16.751c.834-.565 1.383-1.521 1.383-2.604 0-1.737-1.408-3.145-3.145-3.145s-3.145 1.408-3.145 3.145c0 1.084.549 2.039 1.383 2.604h-16.749c.834-.565 1.383-1.521 1.383-2.604 0-1.737-1.408-3.145-3.145-3.145s-3.145 1.408-3.145 3.145c0 1.084.548 2.039 1.383 2.604h-16.751c.834-.565 1.383-1.521 1.383-2.604 0-1.737-1.408-3.145-3.145-3.145s-3.145 1.408-3.145 3.145c0 1.084.549 2.039 1.383 2.604h-16.751c.834-.565 1.383-1.521 1.383-2.604 0-1.737-1.408-3.145-3.145-3.145s-3.145 1.408-3.145 3.145c0 1.084.549 2.039 1.383 2.604h-16.751c.834-.565 1.383-1.521 1.383-2.604 0-1.737-1.408-3.145-3.145-3.145s-3.145 1.408-3.145 3.145c0 1.084.549 2.039 1.383 2.604h-16.751c.835-.565 1.383-1.521 1.383-2.604 0-1.737-1.408-3.145-3.145-3.145s-3.145 1.408-3.145 3.145c0 1.084.549 2.039 1.383 2.604h-16.751c.834-.565 1.383-1.521 1.383-2.604 0-1.737-1.408-3.145-3.145-3.145s-3.145 1.408-3.145 3.145c0 1.084.549 2.039 1.383 2.604h-16.751c.834-.565 1.383-1.521 1.383-2.604 0-1.737-1.408-3.145-3.145-3.145s-3.145 1.408-3.145 3.145c0 1.084.549 2.039 1.383 2.604h-16.751c.835-.565 1.383-1.521 1.383-2.604 0-1.737-1.408-3.145-3.145-3.145s-3.145 1.408-3.145 3.145c0 1.084.549 2.039 1.383 2.604h-16.751c.834-.565 1.383-1.521 1.383-2.604 0-1.737-1.408-3.145-3.145-3.145s-3.145 1.408-3.145 3.145c0 1.084.549 2.039 1.383 2.604h-16.746c.834-.565 1.383-1.521 1.383-2.604 0-1.737-1.408-3.145-3.145-3.145s-3.145 1.408-3.145 3.145c0 1.084.549 2.039 1.383 2.604h-16.751c.834-.565 1.383-1.521 1.383-2.604 0-1.737-1.408-3.145-3.145-3.145s-3.145 1.408-3.145 3.145c0 1.07.536 2.011 1.352 2.58-5.303-.085-10.526-.503-15.649-1.237.194-.409.312-.86.312-1.343 0-1.737-1.408-3.145-3.145-3.145s-3.145 1.408-3.145 3.145c0 .117.022.228.035.342-8.857-1.715-17.381-4.374-25.461-7.873.57-.569.923-1.355.923-2.225 0-1.737-1.408-3.146-3.145-3.146-1.654 0-2.996 1.282-3.121 2.905-41.095-20.173-69.454-62.454-69.454-111.239v-77.999c0-68.286 55.555-123.841 123.841-123.841h245.741c47.971 0 89.658 27.418 110.217 67.406-.498-.33-1.093-.525-1.734-.525-1.737 0-3.145 1.409-3.145 3.146s1.408 3.144 3.145 3.144c1.678 0 3.036-1.317 3.128-2.973 4.176 8.654 7.366 17.869 9.443 27.492-.552-.479-1.263-.779-2.052-.779-1.737 0-3.145 1.408-3.145 3.145s1.408 3.145 3.145 3.145c1.234 0 2.291-.717 2.806-1.751 1.332 7.265 2.033 14.747 2.033 22.391z"></path><path d="m254.821 71.616c-64.832 0-117.577 52.745-117.577 117.577s52.745 117.578 117.577 117.578 117.578-52.745 117.578-117.578c0-64.832-52.746-117.577-117.578-117.577zm0 227.045c-60.36 0-109.467-49.107-109.467-109.468 0-60.36 49.107-109.468 109.467-109.468 60.361 0 109.468 49.107 109.468 109.468 0 60.36-49.107 109.468-109.468 109.468z"></path><ellipse cx="254.813" cy="189.179" rx="75.215" ry="75.216" transform="matrix(.999 -.033 .033 .999 -6.159 8.591)"></ellipse><ellipse cx="370.868" cy="82.513" rx="19.405" ry="19.405"></ellipse></g></g></svg>